HIERARCHY
ROOT Hips
{
	OFFSET 0.00000 0.00000 0.00000
	CHANNELS 6 Xposition Yposition Zposition Zrotation Yrotation Xrotation 
	JOINT LHipJoint
	{
		OFFSET 0 0 0
		CHANNELS 3 Zrotation Yrotation Xrotation
		JOINT LeftHip
		{
			OFFSET 1.58895 -1.83665 0.71753
			CHANNELS 3 Zrotation Yrotation Xrotation
			JOINT LeftKnee
			{
				OFFSET 2.50528 -6.88321 0.00000
				CHANNELS 3 Zrotation Yrotation Xrotation
				JOINT LeftAnkle
				{
					OFFSET 2.63244 -7.23257 0.00000
					CHANNELS 3 Zrotation Yrotation Xrotation
					JOINT LeftToe
					{
						OFFSET 0.23691 -0.65090 1.72750
						CHANNELS 3 Zrotation Yrotation Xrotation
						End Site
						{
							OFFSET 0.00000 -0.00000 0.92561
						}
					}
				}
			}
		}
	}
	JOINT RHipJoint
	{
		OFFSET 0 0 0
		CHANNELS 3 Zrotation Yrotation Xrotation
		JOINT RightHip
		{
			OFFSET -1.51435 -1.83665 0.71753
			CHANNELS 3 Zrotation Yrotation Xrotation
			JOINT RightKnee
			{
				OFFSET -2.54551 -6.99375 0.00000
				CHANNELS 3 Zrotation Yrotation Xrotation
				JOINT RightAnkle
				{
					OFFSET -2.66027 -7.30903 0.00000
					CHANNELS 3 Zrotation Yrotation Xrotation
					JOINT RightToe
					{
						OFFSET -0.22981 -0.63138 2.03959
						CHANNELS 3 Zrotation Yrotation Xrotation
						End Site
						{
							OFFSET -0.00000 -0.00000 1.07060
						}
					}
				}
			}
		}
	}
	JOINT lowerback
	{
		OFFSET 0 0 0
		CHANNELS 3 Zrotation Yrotation Xrotation
		JOINT Chest
		{
			OFFSET -0.02651 1.86275 -0.11152
			CHANNELS 3 Zrotation Yrotation Xrotation
			JOINT Chest2
			{
				OFFSET 0.01019 1.86224 0.04087
				CHANNELS 3 Zrotation Yrotation Xrotation
				JOINT lowerneck
				{
					OFFSET 0 0 0
					CHANNELS 3 Zrotation Yrotation Xrotation
					JOINT Neck
					{
						OFFSET -0.01926 1.80512 0.08867
						CHANNELS 3 Zrotation Yrotation Xrotation
						JOINT Head
						{
							OFFSET 0.05516 1.76451 -0.38475
							CHANNELS 3 Zrotation Yrotation Xrotation
							End Site
							{
								OFFSET 0.01592 1.82587 -0.14001
							}
						}
					}
				}
				JOINT LeftCollar
				{
					OFFSET 0 0 0
					CHANNELS 3 Zrotation Yrotation Xrotation
					JOINT LeftShoulder
					{
						OFFSET 3.47116 1.51376 0.14491
CHANNELS 3 Zrotation Xrotation Yrotation
						JOINT LeftElbow
						{
OFFSET 0 -4.780950 0.000000
CHANNELS 3 Zrotation Xrotation Yrotation
							JOINT LeftWrist
							{
OFFSET 0 -3.586150 -0.000000
CHANNELS 3 Zrotation Xrotation Yrotation
								JOINT lhand
								{
									OFFSET 0 0 0
CHANNELS 3 Zrotation Xrotation Yrotation
									JOINT LFingers
									{
OFFSET 0 -0.659810 0.000000
CHANNELS 3 Zrotation Xrotation Yrotation
										End Site
										{
OFFSET 0 -0.531960 0.000000
										}
									}
								}
								JOINT LThumb
								{
OFFSET 0 0.000000 0.000000
CHANNELS 3 Zrotation Xrotation Yrotation
									End Site
									{
OFFSET 0 -0.540080 0.540080
									}
								}
							}
						}
					}
				}
				JOINT RightCollar
				{
					OFFSET 0 0 0
					CHANNELS 3 Zrotation Yrotation Xrotation
					JOINT RightShoulder
					{
						OFFSET -3.31725 1.61216 0.35156
CHANNELS 3 Zrotation Xrotation Yrotation
						JOINT RightElbow
						{
OFFSET 0 -4.489130 0.000000
CHANNELS 3 Zrotation Xrotation Yrotation
							JOINT RightWrist
							{
OFFSET 0 -3.705100 0.000000
CHANNELS 3 Zrotation Xrotation Yrotation
								JOINT rhand
								{
									OFFSET 0 0 0
CHANNELS 3 Zrotation Xrotation Yrotation
									JOINT RFingers
									{
OFFSET 0 -0.449140 0.000000
CHANNELS 3 Zrotation Xrotation Yrotation
										End Site
										{
OFFSET 0 -0.362110 0.000000
										}
									}
								}
								JOINT RThumb
								{
OFFSET 0 0.000000 0.000000
CHANNELS 3 Zrotation Xrotation Yrotation
									End Site
									{
OFFSET 0 -0.367630 0.367630
									}
								}
							}
						}
					}
				}
			}
		}
	}
}
MOTION
Frames: 11
Frame Time: 0.008333333333333333
-1.389184 18.136972 5.819988 -2.972338 -5.670193 -0.863941 0.000000 0.000000 0.000000 -12.387398 1.964844 18.858068 0.710952 -5.388677 -15.020551 -0.915893 17.404482 -11.972785 0.453860 -4.320187 -11.979411 0.000000 0.000000 0.000000 19.295778 -4.237792 12.326478 -0.096524 2.000692 -5.507576 -0.518507 -4.915487 -16.291403 -0.057956 -1.550221 4.264156 4.070280 -2.228261 8.115004 0.917269 -2.541790 0.082181 -1.024600 -1.337639 -4.603471 -11.262336 -6.227509 -9.052001 -1.100266 -6.422179 23.246974 0.788114 -4.115002 9.196652 0.000000 0.000000 0.000000 -9.566131 -31.034357 -78.577206 85.027420 -59.901819 55.695157 21.327156 -38.277875 33.457735 0.000000 0.000000 0.000000 -7.125000 0.000000 0.000000 -6.093835 -5.197565 -6.653816 0.000000 0.000000 0.000000 -8.769457 -15.149483 47.583271 -123.700155 -55.228807 -88.716037 -28.427283 -0.649525 37.849657 0.000000 0.000000 0.000000 7.125000 0.000000 0.000000 9.607469 71.234221 -6.042576
-1.388322 18.149109 5.758183 -3.198753 -7.981601 -0.611851 0.000000 0.000000 0.000000 -12.165633 2.816699 18.307889 0.651144 -5.161356 -14.369385 -0.942394 17.950526 -13.301997 0.299590 -3.517656 -9.723696 0.000000 0.000000 0.000000 19.786629 -2.114814 13.077077 -0.152835 2.517726 -6.938807 -0.392257 -6.271342 -15.781544 -0.017591 -0.853616 2.346131 4.401884 -2.237107 9.013195 1.424204 -2.448782 0.164797 -0.662437 -1.297533 -5.009411 -10.431392 -5.161148 -9.848195 -1.107303 -5.025204 20.924863 0.826916 -3.315909 8.426273 0.000000 0.000000 0.000000 -12.559063 -32.303913 -76.748270 82.900536 -59.808702 53.855681 25.436628 -37.226870 35.668699 0.000000 0.000000 0.000000 -7.125000 0.000000 0.000000 -4.238430 -8.405405 -4.822965 0.000000 0.000000 0.000000 -5.388796 -20.625799 48.856452 -117.723917 -56.883323 -83.758009 -25.535613 -14.455154 39.561577 0.000000 0.000000 0.000000 7.125000 0.000000 0.000000 15.887938 71.903697 -10.241570
-1.380875 18.155984 5.745978 -2.462086 -10.327294 -0.504125 0.000000 0.000000 0.000000 -13.184631 3.537212 17.524525 0.524485 -4.640333 -12.885557 -0.911997 18.280058 -15.040689 0.226505 -3.063464 -8.455564 0.000000 0.000000 0.000000 19.142939 -0.085623 14.340990 -0.251546 3.225869 -8.908379 -0.263649 -7.515989 -15.222254 -0.009295 -0.622126 1.709658 4.156568 -1.912043 9.263925 1.482195 -2.030149 0.290672 -0.517104 -1.083094 -4.987516 -9.797576 -4.287801 -10.438419 -1.075383 -3.906753 19.136326 0.864332 -2.677037 7.852911 0.000000 0.000000 0.000000 -14.239961 -32.789231 -74.775246 83.243673 -59.826782 54.152255 29.750744 -34.925037 40.310002 0.000000 0.000000 0.000000 -7.125000 0.000000 0.000000 -3.057166 -14.306021 -3.719249 0.000000 0.000000 0.000000 -1.505840 -25.004282 49.267443 -113.333790 -57.838616 -80.060957 -20.659028 -28.877884 44.137380 0.000000 0.000000 0.000000 7.125000 0.000000 0.000000 31.035577 74.090864 -21.895550
-1.372784 18.157774 5.747254 -1.556480 -12.022795 -0.588892 0.000000 0.000000 0.000000 -14.350304 4.240247 17.027772 0.446813 -4.288693 -11.890295 -0.897130 18.546080 -16.075959 0.246809 -3.196449 -8.826240 0.000000 0.000000 0.000000 18.120947 0.765479 14.775031 -0.297411 3.506380 -9.692030 -0.200599 -7.496606 -14.286255 -0.005758 -0.489268 1.344494 4.064208 -1.548243 9.303959 1.270611 -1.568872 0.399179 -0.750481 -0.853316 -4.879129 -8.885957 -3.749936 -10.663112 -1.462866 -3.266398 17.799184 0.665080 -2.300627 7.390550 0.000000 0.000000 0.000000 -14.744726 -33.820244 -73.195272 83.021806 -59.815063 53.960529 34.559831 -30.699022 45.177241 0.000000 0.000000 0.000000 -7.125000 0.000000 0.000000 -2.202045 -20.686895 -2.839029 0.000000 0.000000 0.000000 1.643933 -28.786317 49.472193 -110.016826 -58.428056 -77.243315 -15.449353 -47.709490 48.248073 0.000000 0.000000 0.000000 7.125000 0.000000 0.000000 47.790761 74.954054 -35.504946
-1.368808 18.174414 5.723980 -2.667515 -13.077830 0.270776 0.000000 0.000000 0.000000 -13.194163 4.502153 16.659842 0.484165 -4.461306 -12.378368 -0.989018 19.268042 -16.417269 0.214591 -2.982227 -8.229377 0.000000 0.000000 0.000000 19.404071 2.040571 13.724256 -0.246212 3.191349 -8.812081 -0.214228 -7.178487 -14.154098 -0.006989 -0.539622 1.482853 6.069680 -1.262945 9.086396 1.486699 -0.978126 0.273946 -1.730334 -0.607557 -4.895440 -8.958384 -3.720239 -10.870368 -1.018109 -3.287458 17.080502 0.822150 -2.252134 7.197928 0.000000 0.000000 0.000000 -15.088693 -35.217313 -71.019969 82.364140 -59.778488 53.392119 37.955300 -28.247294 50.508742 0.000000 0.000000 0.000000 -7.125000 0.000000 0.000000 -2.720874 -26.951477 -3.661769 0.000000 0.000000 0.000000 1.971866 -32.743585 50.381364 -107.175919 -58.855346 -74.817554 -13.477127 -57.628446 49.178358 0.000000 0.000000 0.000000 7.125000 0.000000 0.000000 52.398602 74.718114 -39.070431
-1.376204 18.177728 5.717248 -2.759170 -13.273165 0.344145 0.000000 0.000000 0.000000 -12.990190 4.960071 16.783332 0.529359 -4.662277 -12.947939 -1.028908 19.372866 -15.987440 0.214956 -2.984704 -8.236083 0.000000 0.000000 0.000000 19.549949 2.409491 13.258401 -0.199325 2.874621 -7.929814 -0.252427 -6.776918 -14.315256 -0.013668 -0.754056 2.072267 6.869452 -1.103891 9.161790 1.433569 -0.682138 0.323289 -2.272771 -0.479031 -4.875774 -8.840201 -3.829580 -11.426574 -1.032488 -3.392188 17.116545 0.778051 -2.296982 7.308558 0.000000 0.000000 0.000000 -15.232717 -36.527871 -70.062749 83.074877 -59.817949 54.006284 40.066293 -31.880908 51.375053 0.000000 0.000000 0.000000 -7.125000 0.000000 0.000000 -2.234428 -28.541530 -3.032051 0.000000 0.000000 0.000000 2.253788 -34.416234 52.237603 -109.037164 -58.585104 -76.408340 -17.075788 -48.192041 48.213968 0.000000 0.000000 0.000000 7.125000 0.000000 0.000000 46.239645 75.568370 -34.778593
-1.390933 18.175662 5.717332 -2.780651 -12.689849 0.237719 0.000000 0.000000 0.000000 -12.800102 5.253341 16.752817 0.546579 -4.736548 -13.158652 -1.015403 19.026507 -15.204251 0.278337 -3.390342 -9.367687 0.000000 0.000000 0.000000 19.536159 1.826323 13.180968 -0.190831 2.813333 -7.759399 -0.274160 -6.501630 -14.366823 -0.026498 -1.038695 2.855317 7.287046 -1.172920 9.197173 1.478485 -0.728812 0.402598 -2.453245 -0.507471 -4.821956 -8.957319 -3.932773 -11.650716 -1.034323 -3.484420 17.114837 0.782501 -2.348558 7.354402 0.000000 0.000000 0.000000 -14.757032 -37.118141 -70.590376 87.252729 -59.966376 57.621156 36.318625 -37.457768 45.763298 0.000000 0.000000 0.000000 -7.125000 0.000000 0.000000 -1.619520 -21.881739 -2.105465 0.000000 0.000000 0.000000 1.668471 -35.001849 54.041782 -110.102778 -58.416538 -77.316958 -21.136920 -30.203990 43.569036 0.000000 0.000000 0.000000 7.125000 0.000000 0.000000 29.218184 73.816966 -20.409452
-1.406347 18.168184 5.720312 -2.839161 -11.601497 0.032790 0.000000 0.000000 0.000000 -12.544517 5.382585 16.869485 0.571701 -4.841987 -13.458476 -0.992489 18.506311 -14.013704 0.421448 -4.164844 -11.541131 0.000000 0.000000 0.000000 19.505202 0.713799 13.117231 -0.181382 2.743148 -7.564540 -0.308399 -6.053012 -14.444631 -0.069760 -1.703712 4.687452 7.450931 -1.428369 8.768615 1.644431 -1.103520 0.741059 -2.332993 -0.669158 -4.261432 -8.853435 -3.949487 -12.165696 -1.443505 -3.383092 17.479339 0.629492 -2.342795 7.554408 0.000000 0.000000 0.000000 -14.636837 -37.555879 -71.569916 94.293429 -59.920370 63.716910 30.925607 -47.156484 37.514703 0.000000 0.000000 0.000000 -7.125000 0.000000 0.000000 -1.765932 -11.828450 -2.090196 0.000000 0.000000 0.000000 0.907662 -34.852283 55.390485 -109.333788 -58.538977 -76.661365 -23.325714 -7.119285 37.663318 0.000000 0.000000 0.000000 7.125000 0.000000 0.000000 16.323629 69.388316 -9.656556
-1.416998 18.161934 5.733218 -2.914716 -10.551590 -0.188406 0.000000 0.000000 0.000000 -12.329579 5.241341 17.113574 0.592899 -4.929673 -13.708142 -0.958295 18.075315 -13.344041 0.500940 -4.536657 -12.591714 0.000000 0.000000 0.000000 19.517797 -0.389249 13.121165 -0.175614 2.699447 -7.443133 -0.309763 -5.918578 -14.343493 -0.053027 -1.484486 4.083024 7.786130 -1.568470 8.658423 1.684275 -1.269754 0.820281 -2.459862 -0.750866 -4.139159 -9.294981 -4.160369 -12.257719 -1.200140 -3.607637 17.891584 0.750266 -2.469256 7.731910 0.000000 0.000000 0.000000 -14.917192 -37.252590 -72.425681 100.228907 -59.597691 68.846396 28.734567 -59.459808 31.982413 0.000000 0.000000 0.000000 -7.125000 0.000000 0.000000 -1.718605 -5.461330 -1.875503 0.000000 0.000000 0.000000 -0.374120 -33.967844 54.509364 -108.543777 -58.659945 -75.987144 -28.123382 6.029395 30.078467 0.000000 0.000000 0.000000 7.125000 0.000000 0.000000 3.949963 63.199359 -1.874889
-1.425719 18.157870 5.746446 -2.892903 -9.668631 -0.348061 0.000000 0.000000 0.000000 -12.269084 5.054399 17.233360 0.600174 -4.959296 -13.792505 -0.923836 17.704533 -12.901885 0.570037 -4.835366 -13.439610 0.000000 0.000000 0.000000 19.428315 -1.335985 13.185346 -0.180606 2.737492 -7.548705 -0.307487 -5.906270 -14.299896 -0.044663 -1.364138 3.751483 8.041865 -1.581854 8.558575 1.618014 -1.279874 0.894418 -2.673596 -0.754350 -4.013503 -9.623852 -4.436235 -12.418923 -1.013608 -3.925824 18.258856 0.822506 -2.636102 7.909163 0.000000 0.000000 0.000000 -15.044692 -37.039196 -74.341591 102.170917 -59.432800 70.520235 28.942482 -63.551016 28.940390 0.000000 0.000000 0.000000 -7.125000 0.000000 0.000000 -1.031625 -2.302910 -1.072496 0.000000 0.000000 0.000000 -1.047354 -33.147868 53.112746 -107.626116 -58.792931 -75.202781 -40.889150 14.714648 20.749586 0.000000 0.000000 0.000000 7.125000 0.000000 0.000000 -13.721158 56.067160 3.776120
-1.439324 18.155629 5.750658 -2.756815 -8.910042 -0.479429 0.000000 0.000000 0.000000 -12.259126 5.213363 17.091772 0.597000 -4.946300 -13.755500 -0.865789 17.085759 -12.214548 0.612317 -5.007798 -13.930939 0.000000 0.000000 0.000000 19.243957 -2.165474 13.280501 -0.190145 2.808198 -7.745206 -0.301055 -5.909429 -14.208505 -0.038278 -1.262032 3.470070 7.762937 -1.594529 8.066952 1.681570 -1.395119 1.322287 -2.455486 -0.773196 -3.293437 -9.921492 -4.652788 -12.673933 -0.979517 -4.138215 18.066913 0.853347 -2.746811 7.910036 0.000000 0.000000 0.000000 -14.692761 -38.140215 -76.775182 99.354247 -59.663262 68.091699 29.687328 -58.551253 32.713696 0.000000 0.000000 0.000000 -7.125000 0.000000 0.000000 -1.336238 -6.489337 -1.478917 0.000000 0.000000 0.000000 -1.851118 -33.448736 52.754937 -108.637572 -58.640057 -76.066372 -43.471098 17.969613 26.100694 0.000000 0.000000 0.000000 7.125000 0.000000 0.000000 -17.690901 63.150404 7.921980
